<svg width="119" height="119" viewBox="0 0 119 119" fill="none" xmlns="http://www.w3.org/2000/svg">
<path d="M59.802 92.402C41.797 92.402 27.202 77.806 27.202 59.802C27.202 41.797 41.798 27.202 59.802 27.202C73.721 27.202 85.595 35.928 90.271 48.205H115.415C110.06 22.396 87.198 3 59.802 3C28.431 3 3 28.431 3 59.802C3 91.173 28.431 116.604 59.802 116.604C87.198 116.604 110.061 97.208 115.415 71.399H90.271C85.595 83.676 73.72 92.402 59.802 92.402Z" fill="white" stroke="white" stroke-width="4.4583" stroke-miterlimit="10"/>
<path d="M102.93 48.2049C102.93 48.2049 92.2011 15.6479 59.2071 15.6479C23 15.6479 -1.49998 52.5 14 93.5" stroke="white" stroke-width="4.4583" stroke-miterlimit="10"/>
<path d="M33 41C12 69.5 30.835 104.843 59.207 104.843C92.314 104.843 102.93 72.382 102.93 72.382" stroke="white" stroke-width="4.4583" stroke-miterlimit="10"/>
</svg>
